<svg xmlns="http://www.w3.org/2000/svg" xmlns:xlink="http://www.w3.org/1999/xlink" width="1920" zoomAndPan="magnify" viewBox="0 0 1440 359.999987" height="480" preserveAspectRatio="xMidYMid meet" version="1.0"><defs><filter x="0%" y="0%" width="100%" height="100%" id="6f2a79a34f"><feColorMatrix values="0 0 0 0 1 0 0 0 0 1 0 0 0 0 1 0 0 0 1 0" color-interpolation-filters="sRGB"/></filter><mask id="143d598b60"><g filter="url(#6f2a79a34f)"><rect x="-144" width="1728" fill="#000000" y="-35.999999" height="431.999984" fill-opacity="0.6471"/></g></mask><clipPath id="b1f98e8992"><path d="M 0 0.839844 L 262.5 0.839844 L 262.5 263.339844 L 0 263.339844 Z M 0 0.839844 " clip-rule="nonzero"/></clipPath><clipPath id="a0d4ade5c5"><rect x="0" width="263" y="0" height="264"/></clipPath><clipPath id="fbe98fb54b"><path d="M 32.417969 90.257812 L 229.667969 90.257812 L 229.667969 287.507812 L 32.417969 287.507812 Z M 32.417969 90.257812 " clip-rule="nonzero"/></clipPath><mask id="26da0c96c8"><g filter="url(#6f2a79a34f)"><rect x="-144" width="1728" fill="#000000" y="-35.999999" height="431.999984" fill-opacity="0.4078"/></g></mask><clipPath id="ea3e3ba000"><path d="M 0.199219 0.519531 L 1157 0.519531 L 1157 243.878906 L 0.199219 243.878906 Z M 0.199219 0.519531 " clip-rule="nonzero"/></clipPath><clipPath id="059b61b229"><rect x="0" width="1157" y="0" height="244"/></clipPath></defs><rect x="-144" width="1728" fill="#ffffff" y="-35.999999" height="431.999984" fill-opacity="1"/><rect x="-144" width="1728" fill="#ffffff" y="-35.999999" height="431.999984" fill-opacity="1"/><rect x="-144" width="1728" fill="#000000" y="-35.999999" height="431.999984" fill-opacity="1"/><g mask="url(#143d598b60)"><g transform="matrix(1, 0, 0, 1, 0, 57)"><g clip-path="url(#a0d4ade5c5)"><g clip-path="url(#b1f98e8992)"><path fill="#a6a6a6" d="M 131.25 0.839844 C 131.25 73.328125 72.484375 132.089844 0 132.089844 C 72.488281 132.089844 131.25 190.855469 131.25 263.34375 C 131.25 190.855469 190.015625 132.089844 262.5 132.089844 C 190.015625 132.089844 131.25 73.328125 131.25 0.839844 Z M 131.25 0.839844 " fill-opacity="1" fill-rule="nonzero"/></g></g></g></g><g clip-path="url(#fbe98fb54b)"><path fill="#000000" d="M 131.042969 90.257812 C 131.042969 144.726562 86.882812 188.882812 32.417969 188.882812 C 86.886719 188.882812 131.042969 233.042969 131.042969 287.511719 C 131.042969 233.039062 175.199219 188.882812 229.667969 188.882812 C 175.199219 188.882812 131.042969 144.726562 131.042969 90.257812 Z M 131.042969 90.257812 " fill-opacity="1" fill-rule="nonzero"/></g><g mask="url(#26da0c96c8)"><g transform="matrix(1, 0, 0, 1, 283, 77)"><g clip-path="url(#059b61b229)"><g clip-path="url(#ea3e3ba000)"><path stroke-linecap="butt" transform="matrix(2.641058, 0, 0, 2.641058, 5.622328, -62.647461)" fill="none" stroke-linejoin="miter" d="M 27.981629 97.532449 C 36.486151 97.532449 42.566515 92.786186 45.582292 87.446825 L 45.582292 96.000155 L 56.953208 96.000155 L 56.953208 26.390272 L 45.038003 26.390272 L 45.038003 48.192909 L 45.285004 53.483461 C 42.615323 48.68691 36.435864 43.644838 28.131013 43.644838 C 13.299126 43.644838 3.411695 55.756757 3.411695 70.588643 C 3.411695 85.519626 13.546127 97.532449 27.981629 97.532449 Z M 30.157308 86.50763 C 21.407264 86.50763 15.177516 79.585688 15.177516 70.588643 C 15.177516 61.343118 21.703073 54.718465 30.157308 54.718465 C 38.562734 54.718465 45.137099 61.689215 45.137099 70.588643 C 45.137099 79.585688 38.512446 86.50763 30.157308 86.50763 Z M 74.899968 113.352339 C 86.171788 113.352339 91.312957 110.040752 97.294224 94.862768 L 117.119375 45.177131 L 104.36407 45.227419 L 92.598249 75.976813 L 91.264148 81.168269 L 89.977377 75.928004 L 78.013363 45.177131 L 65.407443 45.177131 L 84.886496 93.626284 L 84.291919 95.35677 C 82.166528 100.943132 80.140233 103.464907 74.800872 103.464907 L 66.346638 103.464907 L 66.346638 113.352339 Z M 142.876984 97.532449 C 155.138286 97.532449 164.234427 92.093991 164.234427 80.921268 C 164.234427 70.14345 156.027194 67.078864 145.497856 65.496283 C 136.746333 64.111895 134.867943 62.87689 134.867943 59.069823 C 134.867943 56.003758 137.142717 53.433173 142.283886 53.433173 C 147.821439 53.433173 150.786929 56.102854 151.03393 59.861113 L 162.750943 59.95873 C 162.750943 50.269491 154.494901 43.644838 142.235077 43.644838 C 129.82587 43.644838 123.102121 49.972203 123.102121 59.316824 C 123.102121 69.847641 131.506068 73.752326 141.295882 75.037618 C 148.216345 76.075909 152.023413 77.312392 152.023413 81.613462 C 152.023413 85.469338 149.15554 88.039923 142.97608 88.039923 C 136.153235 88.039923 132.692264 84.530143 132.495551 79.882977 L 121.025539 79.834168 C 121.025539 88.782404 127.94748 97.532449 142.876984 97.532449 Z M 186.085873 113.352339 L 186.085873 93.676572 L 185.838872 87.792922 C 189.200746 93.676572 195.677495 97.532449 203.093438 97.532449 C 217.281939 97.532449 227.71366 85.519626 227.71366 70.588643 C 227.71366 55.756757 217.381035 43.693647 202.945533 43.693647 C 195.628686 43.693647 189.151938 47.599811 185.492775 53.730462 L 185.492775 45.177131 L 174.121859 45.177131 L 174.121859 113.352339 Z M 200.917759 86.50763 C 192.809622 86.50763 185.937968 79.882977 185.937968 70.588643 C 185.937968 61.689215 192.612908 54.718465 200.868951 54.718465 C 209.124993 54.718465 215.848742 61.047309 215.848742 70.588643 C 215.848742 80.427266 208.977088 86.50763 200.917759 86.50763 Z M 286.495438 69.698257 C 286.495438 55.707948 276.213101 43.644838 260.887212 43.644838 C 245.610132 43.644838 234.536505 55.756757 234.536505 70.588643 C 234.536505 85.42053 245.610132 97.532449 260.887212 97.532449 C 273.54342 97.532449 282.590753 89.17731 285.161337 80.030881 L 272.108744 80.030881 C 270.379738 84.331951 266.671766 86.853727 260.640211 86.853727 C 253.619174 86.853727 247.785811 82.058655 246.549327 73.752326 L 286.248437 73.752326 C 286.446629 71.873935 286.495438 70.983549 286.495438 69.698257 Z M 247.044808 64.50828 C 249.071103 57.339337 254.80537 54.076559 260.836925 54.076559 C 267.857962 54.076559 273.790421 58.822822 274.284423 64.50828 Z M 308.198978 96.000155 L 308.198978 72.367937 C 308.198978 61.541311 313.78534 55.460947 321.992574 55.460947 L 326.787645 55.460947 L 326.787645 45.177131 L 321.350667 45.177131 C 314.726014 45.177131 310.078848 48.786007 307.704977 54.372368 L 307.704977 45.177131 L 296.234964 45.177131 L 296.234964 96.000155 Z M 353.633833 97.532449 C 365.893657 97.532449 374.991277 92.093991 374.991277 80.921268 C 374.991277 70.14345 366.784043 67.078864 356.253226 65.496283 C 347.503182 64.111895 345.624792 62.87689 345.624792 59.069823 C 345.624792 56.003758 347.898088 53.433173 353.040735 53.433173 C 358.57681 53.433173 361.543778 56.102854 361.790779 59.861113 L 373.507792 59.95873 C 373.507792 50.269491 365.25175 43.644838 352.990448 43.644838 C 340.581241 43.644838 333.857491 49.972203 333.857491 59.316824 C 333.857491 69.847641 342.262917 73.752326 352.051253 75.037618 C 358.973194 76.075909 362.780262 77.312392 362.780262 81.613462 C 362.780262 85.469338 359.912389 88.039923 353.73293 88.039923 C 346.910084 88.039923 343.449113 84.530143 343.250921 79.882977 L 331.780909 79.834168 C 331.780909 88.782404 338.702851 97.532449 353.633833 97.532449 Z M 433.228765 69.698257 C 433.228765 55.707948 422.946428 43.644838 407.62054 43.644838 C 392.34346 43.644838 381.269833 55.756757 381.269833 70.588643 C 381.269833 85.42053 392.34346 97.532449 407.62054 97.532449 C 420.276748 97.532449 429.324081 89.17731 431.894665 80.030881 L 418.842072 80.030881 C 417.113066 84.331951 413.405094 86.853727 407.373539 86.853727 C 400.352501 86.853727 394.519139 82.058655 393.282655 73.752326 L 432.981765 73.752326 C 433.179957 71.873935 433.228765 70.983549 433.228765 69.698257 Z M 393.778136 64.50828 C 395.804431 57.339337 401.538697 54.076559 407.570252 54.076559 C 414.59129 54.076559 420.523749 58.822822 421.017751 64.50828 Z M 393.778136 64.50828 " stroke="#ffffff" stroke-width="3.797025" stroke-opacity="1" stroke-miterlimit="4"/></g></g></g></g></svg>