<svg width="1280" height="46" viewBox="0 0 1280 46" fill="none" xmlns="http://www.w3.org/2000/svg">
<path d="M-112 28.0508C-86.4338 15.7391 -61.9537 -2.82125e-05 -31.8623 3.11455C-20.7963 4.2049 -10.0386 8.1018 0.567513 11.3728C10.2294 14.3359 19.588 18.3892 29.0983 21.5038C39.2299 24.6184 49.0532 23.528 58.5635 18.8537C66.0484 15.2697 73.685 12.3116 81.3265 9.34861C97.0742 3.42748 112.352 5.45172 126.853 13.2455C131.842 15.8956 136.676 18.6972 141.666 21.5038C153.045 28.0508 164.737 29.7621 177.212 24.3103C184.384 21.1909 191.869 18.5408 199.197 15.7391C221.647 7.32438 243.94 7.32438 265.925 17.2989C278.395 22.9071 290.401 23.22 302.876 17.2989C307.866 14.8052 313.32 13.2455 318.623 11.0648C334.836 4.67429 350.27 6.54695 365.084 14.9568C371.008 18.2328 376.932 21.5038 383.013 24.3103C392.21 28.6717 401.564 29.1411 411.388 26.0217C423.862 22.1248 436.489 18.5408 449.429 16.0521C458.939 14.3359 468.919 13.5584 478.586 14.4923C486.535 15.2697 495.268 17.6069 501.662 22.1248C514.132 31.0089 525.98 31.6348 539.703 26.0217C554.981 19.7876 570.885 14.6488 587.88 16.5166C597.077 17.4504 606.744 18.5408 615.164 21.9732C628.26 27.2685 641.669 29.7621 655.7 29.9186C659.599 29.9186 663.498 30.696 667.235 32.2557C651.801 39.893 636.209 45.0319 619.219 37.5559C612.669 34.7493 605.966 32.2557 599.103 30.3879C583.981 26.0217 569.325 29.2976 554.824 33.659C547.344 35.9961 539.859 38.8027 532.218 40.6705C522.394 43.1641 512.419 43.1641 504.157 36.6171C487.783 23.6845 469.388 23.841 450.524 27.112C440.231 28.9847 429.943 31.3218 419.963 34.7493C402.034 40.9834 385.508 38.8027 369.291 29.1411C362.902 25.2442 356.038 22.1248 349.179 19.3231C342.008 16.3601 334.523 16.2036 327.199 18.8537C320.805 21.1909 314.255 23.0635 308.174 25.8652C292.274 33.5025 276.683 33.0331 260.466 26.3346C252.047 22.9071 242.38 21.9732 233.183 20.8828C220.086 19.3231 207.925 23.3716 196.076 28.2024C189.061 31.0089 182.202 33.8154 175.03 36.3091C163.338 40.514 152.11 38.9543 141.196 33.8154C135.428 31.0089 129.817 28.0508 124.201 24.9313C110.17 17.1424 95.6702 16.2036 80.7052 21.8167C76.4931 23.3716 72.1293 24.7748 68.2303 26.9555C50.7704 36.7736 32.9924 35.2187 15.0628 28.2024C8.83029 25.7136 2.59285 23.22 -3.48805 20.257C-26.251 9.19215 -49.7919 8.72765 -73.8024 18.2328C-83.6257 22.1248 -93.2926 26.3346 -102.959 30.075C-105.919 31.3218 -109.353 33.659 -112 28.0508Z" fill="#A8F5E5"/>
<path d="M1386.24 28.0508C1360.67 15.7392 1336.19 2.30508e-06 1306.1 3.11459C1295.03 4.20493 1284.27 8.10183 1273.67 11.3729C1264.01 14.3359 1254.65 18.3892 1245.14 21.5038C1235.01 24.6184 1225.18 23.5281 1215.67 18.8537C1208.19 15.2698 1200.55 12.3117 1192.91 9.34864C1177.16 3.42751 1161.88 5.45175 1147.38 13.2455C1142.39 15.8956 1137.56 18.6973 1132.57 21.5038C1121.19 28.0508 1109.5 29.7621 1097.02 24.3104C1089.85 21.1909 1082.37 18.5408 1075.04 15.7392C1052.59 7.32441 1030.3 7.32441 1008.31 17.2989C995.84 22.9071 983.835 23.22 971.36 17.2989C966.37 14.8053 960.915 13.2455 955.612 11.0648C939.4 4.67432 923.965 6.54698 909.152 14.9568C903.227 18.2328 897.303 21.5038 891.222 24.3104C882.025 28.6718 872.671 29.1412 862.848 26.0217C850.373 22.1248 837.746 18.5408 824.807 16.0521C815.296 14.3359 805.317 13.5585 795.65 14.4923C787.7 15.2698 778.968 17.6069 772.574 22.1248C760.104 31.0089 748.255 31.6348 734.533 26.0217C719.254 19.7876 703.35 14.6488 686.355 16.5166C677.158 17.4505 667.491 18.5408 659.072 21.9732C645.976 27.2685 632.566 29.7621 618.536 29.9186C614.637 29.9186 610.738 30.696 607 32.2557C622.435 39.8931 638.026 45.0319 655.016 37.5559C661.567 34.7494 668.269 32.2557 675.133 30.388C690.254 26.0217 704.911 29.2976 719.411 33.659C726.891 35.9962 734.376 38.8027 742.017 40.6705C751.841 43.1641 761.816 43.1641 770.079 36.6171C786.453 23.6845 804.847 23.841 823.711 27.112C834.004 28.9847 844.292 31.3219 854.272 34.7494C872.202 40.9834 888.727 38.8027 904.944 29.1412C911.334 25.2443 918.197 22.1248 925.056 19.3231C932.228 16.3601 939.713 16.2037 947.036 18.8537C953.43 21.1909 959.981 23.0636 966.062 25.8652C981.961 33.5026 997.552 33.0332 1013.77 26.3346C1022.19 22.9071 1031.86 21.9732 1041.05 20.8829C1054.15 19.3231 1066.31 23.3716 1078.16 28.2024C1085.17 31.0089 1092.03 33.8155 1099.21 36.3091C1110.9 40.514 1122.12 38.9543 1133.04 33.8155C1138.81 31.0089 1144.42 28.0508 1150.03 24.9313C1164.06 17.1424 1178.57 16.2037 1193.53 21.8168C1197.74 23.3716 1202.11 24.7749 1206.01 26.9556C1223.46 36.7736 1241.24 35.2188 1259.17 28.2024C1265.41 25.7136 1271.64 23.22 1277.72 20.257C1300.49 9.19218 1324.03 8.72768 1348.04 18.2328C1357.86 22.1248 1367.53 26.3346 1377.19 30.075C1380.15 31.3219 1383.59 33.659 1386.24 28.0508Z" fill="#A8F5E5"/>
</svg>
