<?xml version="1.0" encoding="UTF-8"?><svg id="Layer_1" xmlns="http://www.w3.org/2000/svg" width="500" height="500" viewBox="0 0 500 500"><path d="M389.68145752,65.519775391c-2.847717285-5.263916016-8.330627441-9.122131348-12.947814941-12.711914062-.000061035-.000061035-7.328796387-5.697998047-15.282409668-9.415344238-.65423584-.305786133-3.907958984-1.800231934-8.226135254-3.503417969-.017456055-.006896973-.061767578-.024353027-.078979492-.03112793-2.839904785-.84588623-7.435852051-1.84173584-13.100341797-1.429870605-6.70513916.487548828-11.495361328,2.697570801-12.895507812,3.381530762-1.497192383.731384277-7.536560059,3.823669434-12.530273438,10.417907715-4.478149414,5.913513184-5.942504883,11.802856445-6.571838379,14.456237793-4.748779297,20.0234375-9.102966309,58.842834473-8.925170898,58.850524902.191162109.008300781-1.559997559-45.145690918-2.275817871-57.781616211-.161010742-2.84185791-.635375977-9.790710449-4.505737305-16.905578613-.706604004-1.298950195-2.519592285-4.439697266-5.670043945-7.819396973-1.45300293-1.558654785-3.344299316-3.323852539-7.907714844-6.527282715-4.503723145-3.161560059-8.534423828-5.504394531-13.589294434-8.362426758-1.373168945-.776367188-2.511291504-1.403198242-3.269714355-1.817504883-.713317871-.315307617-1.426574707-.63067627-2.139953613-.945983887l-.000854492-.000366211c-6.830383301-2.608520508-13.251464844-2.071533203-15.85546875-1.77911377-9.496154785,1.067138672-15.991943359,5.738098145-18.700134277,7.948974609-6.777893066,7.132995605-8.969360352,13.908569336-9.776367188,17.270385742-1.08013916,4.497558594-1.182495117,9.126403809-1.226074219,11.113830566-.113220215,5.13873291.412597656,8.972717285.553039551,10.040649414.488952637,3.720825195.825317383,14.388427734,1.497924805,35.724182129.752563477,23.868164062.54095459,33.208984375,1.333190918,45.395385742.118041992,1.816345215.378112793,5.539550781.578735352,10.756408691,0,.000549316.118164062,3.067138672.355712891,14.298828125-.671691895-.80065918-1.681335449-1.90625-3.044616699-3.062805176-6.817199707-5.78338623-14.840576172-6.363952637-17.707641602-6.571411133-2.255859375-.163269043-15.549926758-.912841797-26.319946289,8.911254883-1.975585938,1.802062988-8.711730957,8.123352051-10.464782715,18.389526367-.534057617,3.126586914-.46685791,5.80657959-.295532227,7.697387695-.973876953-.739624023-2.482116699-1.782653809-4.463500977-2.74810791-9.629943848-4.692199707-21.496154785-3.195739746-30.312988281,1.741210938-9.807678223,5.491943359-13.863769531,14.159942627-15.116882324,16.937225342-.999572754,2.215545654-2.982116699,6.730834961-3.086730957,12.900817871-.045166016,2.668884277.273620605,4.900421143.59362793,6.489990234.41607666,10.713531494.34979248,19.386138916.213684082,25.308074951-.192077637,8.357574463-.559509277,12.813446045-.987182617,28.383178711-.09552002,3.47567749-.152648926,6.280975342-.283874512,11.891204834-.022155762.946533203-.445922852,17.258239746-.488464355,25.112091064-.094116211,17.394012451-.22064209,26.101104736.776306152,33.611206055,1.04095459,7.841888428,3.093200684,22.353302002,11.493835449,39.130767822,4.452209473,8.891784668,12.304504395,21.649230957,25.303344727,33.388336182,2.547485352,2.300598145,4.782531738,4.101501465,6.387756348,5.343688965.003356934.004547119.007568359.010894775.010864258.015441895.032165527.023284912.069030762.049346924.101135254.072937012,3.17376709,2.455993652,7.359802246,5.419677734,12.470397949,8.497161865,5.516174316,3.49887085,11.87701416,7.207244873,19.096008301,10.854736328,12.260070801,6.194595337,24.513061523,12.370452881,41.41595459,15.788223267,25.132019043,5.082122803,45.481384277.940856934,54.86706543-1.091339111,23.268493652-5.037887573,40.305419922-14.818283081,50.179382324-21.525100708,7.631958008-6.016967773,17.221313477-14.959991455,25.812011719-27.589904785,16.784729004-24.676177979,18.030761719-47.218444824,21.01348877-92.271575928,1.008361816-15.230621338.979858398-31.273376465-9.345336914-39.650360107-2.363098145-1.917236328-4.721313477-2.989135742-6.368713379-3.599365234,15.259216309-101.050109863,26.404174805-172.88458252,31.528015137-193.905456543,1.182922363-4.853149414,4.181762695-17.979492188-1.819641113-29.072937012Z" fill="#004744" stroke="#a8f5e5" stroke-miterlimit="10" stroke-width="22"/><path d="M389.681450162,65.519785054c-2.848069862-5.26459749-8.332210282-9.123202543-12.947822381-12.711947882-1.740322958-1.352875957-7.230840467-5.502571762-15.282381094-9.415304296-2.56312289-1.486950351-5.337545159-2.658545907-8.226132862-3.503432341-.023019733-.008399092-.056305024-.022708656-.07901368-.031107748-.00248862.003266314-.006066011.007232551-.008476861.010576634-8.421489519-2.441802674-17.827694799-2.046423197-25.987334849,1.941045701-1.497215908.731420923-7.53655186,3.823686606-12.530278635,10.417907012-4.478193622,5.913505112-5.942513087,11.802901719-6.571822827,14.456237078-4.748831029,20.023435186-9.102982507,58.842871594-8.925201727,58.850570762.191157111.008243553-1.559975789-45.145741335-2.275842838-57.781630774-.160982596-2.841848312-.635375751-9.790697044-4.505723979-16.905583381-.706612494-1.298981784-2.519572043-4.439697784-5.670009215-7.819399058-1.453042906-1.55865371-3.34431621-3.323862866-7.907745062-6.527260978-4.503701976-3.161558191-8.534410644-5.504438226-13.589264143-8.362462567-1.373173763-.776371619-2.51132849-1.40319274-3.269735385-1.817470173-.71330066-.315354795-1.42660132-.630709589-2.139979749-.945986614l-.000855463-.000388847c-6.830328212-2.608540202-13.251434001-2.071542704-15.85546358-1.779129873-9.496106671,1.067151293-15.991948824,5.738135183-18.700111589,7.948962828-6.777911657,7.1330066-8.969374729,13.908585176-9.77638748,17.270399494-1.080138777,4.497558195-1.182483268,9.126391087-1.226034115,11.113865102-.113232202,5.13868888.412566507,8.972718812.553017989,10.040647799.488936028,3.72079773.825288553,14.388422188,1.497915832,35.72413772.752574192,23.868197291.540963736,33.208998531,1.333200307,45.395381012.118053903,1.816381401.378114676,5.539589982.57875965,10.756437078,0,.000544386.118131673,3.067146176.355717098,14.298831874-.671694047-.800635662-1.681373775-1.906282793-3.044670828-3.062791092-6.817185189-5.783396956-14.840573304-6.363945302-17.707618892-6.57143398-2.25585611-.163237907-15.549907726-.912856863-26.319954444,8.91128101-1.975575302,1.802071837-8.711724807,8.123321755-10.464801942,18.389500726-.534042263,3.126561975-.466849527,5.806572228-.295523605,7.697378917-.973828049-.739625592-2.482087207-1.782629495-4.463495211-2.748097337-9.629947757-4.692176043-21.496153742-3.195737829-30.312944968,1.741217306-9.807728536,5.491917358-13.863790019,14.159935779-15.116887875,16.937235514-.99956971,2.215532692-2.982144255,6.730822304-3.086744057,12.900810797-.045184004,2.668889233.273592643,4.900403531.5936136,6.489970565.416066129,10.713547271.349806625,19.386154085.213710228,25.308097173-.192090343,8.357563097-.559550616,12.81343691-.98720438,28.383175825-.095500786,3.475668676-.152661273,6.280965384-.2838582,11.891208838-.02216427.946531-.445929567,17.258228588-.488469412,25.112079477-.094100937,17.394013908-.220631702,26.101111437.77629385,33.611221711,1.040943015,7.841874406,3.093198915,22.353288852,11.493846243,39.130747196,4.452218653,8.891799783,12.304514154,21.649242747,25.303353242,33.388334698,2.547491247,2.300612383,4.782505166,4.10151768,6.387742729,5.343688939.003344083.004549508.007543629.010887712.010887712.01543722.03211875.023291926.068981431.049344665.101100181.072947669,3.173767982,2.455995584,7.359782082,5.419669613,12.47039622,8.497159116,5.516181401,3.498882833,11.877015928,7.207237463,19.096035451,10.854737562,12.260030074,6.194602499,24.513060906,12.37046258,41.415922358,15.78823196,25.13202732,5.082111664,45.481393935.940853836,54.867068101-1.091337567,23.26851768-5.037899777,40.305453527-14.818292379,50.179363796-21.525122833,7.631974877-6.016938374,17.221327022-14.959988171,25.81204269-27.589889369,16.78472978-24.676182159,18.030750623-47.218450579,21.013517033-92.271568595,1.008357649-15.230625578.97981629-31.273396685-9.345389632-39.65036324-2.363100071-1.917248274-4.721300672-2.989143498-6.368689233-3.599360859,15.259205822-101.05009729,26.404178672-172.884575421,31.528013602-193.905480544,1.182949884-4.853119754,4.181736785-17.979500608-1.819647715-29.072912366Z" fill="#004744" stroke-width="0"/><path d="M174.37302992,183.344395127c1.333743039-1.487449887,2.585973653-2.487471224,3.363573111-3.102959103,3.550751999-2.810588881,6.777539999-4.06659592,7.453484934-4.326258342,3.348785743-1.286524486,6.138372893-1.539561316,7.639026896-1.664602107,1.67572365-.139655047,4.406166626-.346340067,7.848054981.388551023,4.097551927.874886482,6.935650164,2.600030785,7.860198788,3.192795791,5.349721874,3.429860201,7.797684684,8.160564709,8.997603114,10.551791662.553945605,1.103878815.771610441,1.707430054,2.010220844,5.126336465,3.285140469,9.067774436,5.039645442,13.910623128,5.998430454,16.535736535.539667805,1.477608526,4.08750273,11.179207757,4.868330161,13.379725099.002278358.006430063.648588379,1.827838709.648588379,1.827838709-5.151094891-2.538244114-8.823634939-4.235586912-11.291288546-5.342610683-.97532819-.437537675-2.976349556-1.327441102-5.639302299-2.668304851-2.564449649-1.29124402-3.404046528-1.822679886-4.58702869-2.417320823-4.248046781-2.135316947-8.201036273-2.724421629-9.995495899-2.977611902-6.231284602-.879235783-11.088736074.188048215-12.51493248.533114939-.316554229.076601142-3.898609573.962531872-7.362064068,2.74524803-1.377463037.709012632-2.493773934,1.415111027-2.494208772,1.415376446-1.473189345.931821661-3.057848138,2.115892707-3.057829125,2.115968365-.107625688-.297482219-.283068358-.769287324-.517987616-1.341504321-.000189762-.000453851-.416816074-1.015255412-1.713462123-3.673270519h0c-.236232583-.639911908-.598168483-1.63046846-1.026584734-2.846793612-.783012155-2.223067544-1.394723404-4.08025916-1.531450031-4.517109628-1.681122351-5.371513282-.700184148-11.091604523-.700090177-11.092115485.190142552-1.108807838,1.26611255-6.847841928,5.7442129-11.842021688Z" fill="#a8f5e5" stroke="#004744" stroke-miterlimit="10" stroke-width="6"/><path d="M113.420559503,237.050288814c.936304328,15.86118935,1.316343796,27.995126112,1.368935332,34.014242028.049014145,5.608172845,0,10.979450468,0,10.979576843-.027102625,2.141700397-.054224693,4.283391072-.081327318,6.425091469-.025197276,1.990886146-.091553991,6.966794014-.219406835,16.918658356-.026927644,2.09574842-.106466267,8.399733538-.133024507,10.543844785-.163646196,14.326926059-.237177136,24.847969836-.233074801,27.744193519.003907911,2.766096085.077399965,5.331775644.077399965,5.331897158.024283486.854860355.056227254,1.767440165.098417138,2.740556138.136290821,3.14412084.346579197,6.16514735.612356018,9.054225972l.000194423.001701205c.000038885.000493349.463622098,4.18991715,1.25014262,8.293104441,2.424168469,12.646563892,7.851692789,24.311473586,7.851906654,24.311927443,2.605915486,5.59057874,9.421856365,18.901167283,23.025099553,31.766524968,12.777040845,12.083955361,25.189265576,17.803644621,32.61305185,21.147338676,31.825792519,14.334474548,60.767449631,12.264754564,69.9069643,11.312313092,10.531586388-1.097486207,28.095516648-3.113282855,47.468459661-14.216376899,8.476764099-4.858291417,27.803346846-17.476172386,40.147887923-40.290757546,8.08759159-14.947072076,10.761983007-28.876011258,11.343002829-32.298637579.775783488-4.569946897,1.10887456-8.463800917,1.263492218-11.304137587.493191471-8.367043669.986365929-16.734087338,1.479559831-25.101128577.430509359-11.051741957.562005212-20.554774963.59261718-28.179220792.009441688-2.352367898-.016329137-6.146978481-2.009288323-10.270922903-1.493410069-3.090233958-3.448925734-5.035974985-4.878725319-6.434287697-3.101627171-3.033345664-6.080952286-4.663663848-12.279171061-7.701772886-6.119890437-2.999720133-9.235705657-4.372971665-11.608035981-5.495601682-31.84381071-15.068972222-63.687665165-30.137963886-95.531461293-45.206936108-4.786471404-2.265032896-9.677639823-4.321313361-14.357256113-6.799570427-2.650905067-1.403853779-4.225365401-2.074478498-7.374383281-3.415727934-1.418143901-.604034695-2.103039299-.86477595-2.967095882-1.102594683-.834873627-.229808488-3.049900819-.772055419-6.706033317-.540516563-1.507986965.095500786-5.896668043.382722511-10.374861665,2.425179471-11.191828895,5.104470357-14.694191907,15.973828561-15.236127761,17.755845622-.778199199,2.558787248-2.933693938,9.494113831-.153108447,17.674469698,3.24496584,9.546549829,10.871244111,14.038469745,12.81559501,15.109227592,3.946756634,2.002891793,7.893552152,4.005764143,11.84034767,6.008655936,3.183061422,1.597373135,6.366142286,3.19474627,9.549203708,4.792148568,43.136705762,21.478733403,74.373200881,37.027795387,77.408549107,38.417616656.369278131.169090052,1.719296064.776410504,2.299008389,2.114860243.537765471,1.241694922.339463299,3.026137415-.771112465,4.215571321-.838392691.897915423-1.87389185,1.108160053-2.145948548,1.155458412-1.296395953.225414518-2.288412313-.28792651-2.56784738-.445229642-30.79601913-15.086081483-50.649217165-24.963957991-61.218152293-30.420431958l-.001127656-.00058327c-1.984577106-1.024582284-9.440812649-4.865310103-22.568437813-11.214984725-.000155539-.000077769-.021444904-.010391932-.021639327-.010469701-.116129111.568844056-.294026545,1.363297053-.556284302,2.29867787-1.866873165,6.658380136-5.36237303,11.019997473-6.060936395,11.871815102-4.647536425,5.666966488-10.21603717,8.059064813-12.377111861,8.957850281-12.328914294,5.127563-23.545707157,1.092854069-25.507692261.348620643-2.127769958-.807119683-5.704927662-2.412614857-9.392712294-5.415766563-8.640215872-7.036174013-11.502342547-16.547212403-14.552243365-27.182212611-4.88976857-17.050555207-8.553678005-30.759409199-11.128563513-40.683325173Z" fill="#a8f5e5" stroke="#004744" stroke-miterlimit="10" stroke-width="6"/><path d="M232.761823817,35.908084412c6.259483672-4.39185879,13.006389567-4.486138153,14.805360134-4.460241127,9.071290448.130573038,15.108310395,5.084108745,16.923911819,6.712208611,8.064092459,7.231402581,8.706319767,16.884167571,8.794204102,18.768160792.107712705,1.719174619.21542541,3.438349237.323138116,5.157523856.208160053,4.715164823.368433077,8.463966181.461160983,10.648450037,1.23210242,29.023512904,2.195594744,51.286232486,3.187713332,72.742705536,0,.00000946.000132441.00184472.000132441.00185418.794345726,17.179154792,1.316372996,27.435010655,2.22815641,50.92167805.089454711,2.304537262.042456931,8.801091055.689092647,17.504459271.068983053.928225069.130965632,1.692260632.172987399,2.197467844.03382932.572544207.167046456,2.558805846.575022754,3.668854048.05734713.156034899.117967454.299582465.118156656.30003655.000189202.000454085.3706089.877462169.975885056,1.622785654.583839568.718929804,2.764771156,2.265372446,5.81342101,2.322397932,1.017263536.019033722,3.338204612.051576468,5.207615088-1.515564874,1.866667047-1.564851998,2.378836892-3.969912289,2.839846514-6.134704945.0470167-.220741987.06203934-.313659095.349002031-2.2290835.321756941-2.147556353.584728817-3.912035394.765965424-5.130136865.666407325-4.576134454,1.171368574-8.101403096,1.394399906-9.661335841,4.823743127-33.741113703,15.732941916-113.301836709,16.824864565-127.855771019.029458753-.392594174.112007591-1.54719945.408127659-3.052448084.363608426-1.848262421,1.598775919-7.762424042,6.481398712-12.88913162,4.494985712-4.719682021,9.656132786-6.24897823,11.795099368-6.851643398,9.676453082-2.726391528,17.940342865.723910547,20.548473676,1.943814167,2.755708379,1.511378779,7.953560644,4.85979084,11.416487222,10.878926467,1.125543847,1.956377181,2.832467635,5.00550004,2.960008711,9.254816399.056609242,1.885889971-.2144794,3.455235517-.477016112,4.541430075-.243446228,1.289425899-.486873537,2.578856529-.730319765,3.868282428-.476637708,2.667762554-1.289108986,7.270673823-2.243443933,12.992133195-3.433032661,20.581877291-5.352127585,36.013392022-5.898334872,39.578364705-7.344065284,47.93266467-14.688092727,95.86531042-22.03215801,143.79799401-32.163660851-15.21225798-64.327283861-30.42449704-96.490944712-45.636736099.000113521,0-13.875356566-38.178563082-13.876491778-38.181533554-1.686508891-43.210608164-3.372979942-86.421216328-5.059450993-129.631815032-.072691413-.703769993-1.545780435-17.568168318,10.748528441-26.194197847Z" fill="#a8f5e5" stroke="#004744" stroke-miterlimit="10" stroke-width="6"/><path d="M157.726994357,208.841073348c-1.042498402-.736592586-3.86148252-2.59831353-8.000057304-3.615575772-3.479868222-.855307529-6.247057939-.709451076-7.711532942-.620677341-.599135225.036318296-5.292672232.361199838-10.280644074,2.639842374-1.429789864.653262706-2.525949132,1.303492408-2.867667743,1.50927016-1.395104725.840220272-2.76563433,1.830768735-4.2291761,3.118823923-3.253326048,2.863196004-5.742956884,6.497630848-6.982678408,10.783967435-.222809245.770577801-1.171440018,4.002478387-.958118636,8.265095316.013065254.260255196.040517842.69296397.094645323,1.228717158.136718552,1.352253802.357272485,2.47438804.549051751,3.292288502,3.029194724,7.625208941,5.239244675,13.881288127,6.662190835,18.065785724,3.128895056,9.20136076,6.541259465,18.310798124,9.396561878,27.600699311.000077769.000116654,1.322001518,4.301190537,3.917320927,9.456016561.551151524,1.09460388,1.132633102,2.013643408,1.202625535,2.123764836.194812271.306566856.855774145,1.330750572,1.814359398,2.483953672,1.781385185,2.142934985,3.645128133,3.593955887,4.488614718,4.214788767.805146286.592602598,2.900408647,2.062599226,5.922681897,3.264524837,5.075151305,2.018426224,9.474175709,1.972464527,10.557425261,1.943573206.98852646-.026363816,11.300356051-.45907259,18.375035623-8.363745762,2.312005595-2.583342927,4.098212481-5.779975104,4.694081393-7.638196426.517399617-1.613636654,1.433056178-5.307409528,1.433133947-5.307448413-1.797950061-.98977077-3.283345024-1.727374358-4.309822937-2.219032314-1.228522735-.588403052-1.665742132-.760351129-2.589564476-1.249364926-1.688917404-.893997791-2.886876777-1.726946626-3.645361441-2.258072537-1.973942145-1.382272779-4.72277829-3.307103567-7.532896699-6.49315911-3.288633342-3.728613551-4.977784054-7.275946702-5.53733467-8.519867772-.708712267-1.575568548-2.936260327-6.861085998-2.922728457-14.087882458.01236533-6.584343696,1.878596897-11.401184039,2.788887371-13.685309315,1.538355904-3.859966017,3.555226741-6.97439597,4.323821423-7.983725736.024264043-.031963211,1.436400261-1.886140526,1.436400261-1.886140526-.000933232-.002683043-1.285605452-3.526452074-1.286538685-3.529018464-.002566389-.007077013-.878482801-2.409683924-.880349266-2.414816702-.001710926-.004743932-.703190642-1.92883591-.704901568-1.933502072-.260294081-.474354271-.637864371-1.125517205-1.136910417-1.870042267-2.494219229-3.72071996-5.366786442-5.81123839-6.080553718-6.315533869Z" fill="#a8f5e5" stroke="#004744" stroke-miterlimit="10" stroke-width="6"/></svg>
