<svg
    width="120"
    height="120"
    viewBox="23 0 80 49"
    fill="hsl(174, 53.5%, 10.6%)"
    stroke="hsl(167, 70.0%, 58.0%)"
    xmlns="http://www.w3.org/2000/svg"
    stroke-width="1.5px"
    stroke-linecap="round"
    stroke-linejoin="round"
>
    <path
        d="M95.9694 36.9394C95.9694 37.4494 95.9294 37.8894 95.8494 38.2594C95.7594 38.6294 95.6094 38.9794 95.3894 39.2994C94.1994 41.0594 92.7694 42.3894 91.0794 43.2894L90.4094 43.6194L71.9395 52.8694C71.9395 52.8694 71.9194 52.8194 71.8994 52.7994C73.2394 51.9394 74.3994 50.7694 75.3894 49.2994C75.6094 48.9794 75.7594 48.6294 75.8494 48.2594C75.9294 47.8894 75.9694 47.4494 75.9694 46.9394C75.9694 46.4294 75.9294 45.9394 75.8494 45.4694C75.7594 45.0094 75.6094 44.4794 75.3894 43.9094C75.1194 43.2194 74.8394 42.5294 74.5494 41.8494C73.2494 38.8194 71.7294 35.9394 69.9694 33.1994C68.7594 31.2994 67.4294 29.4594 65.9894 27.6994C64.2594 25.5894 62.4795 23.6794 60.6295 21.9894C58.2195 19.7694 55.6995 17.9094 53.0695 16.3894C52.5795 16.0994 52.0794 15.8394 51.5994 15.5794C48.5494 14.0094 45.6395 13.0894 42.8795 12.8194C41.9395 12.7194 41.0194 12.6994 40.1094 12.7594C38.6894 12.8494 37.3694 13.1394 36.1694 13.6294L42.6295 10.3894L55.2595 4.03937C56.6995 3.29937 58.3194 2.87937 60.1094 2.75937C64.1094 2.49937 68.4295 3.71938 73.0695 6.38938C77.7195 9.06938 82.0194 12.8394 85.9894 17.6994C89.9594 22.5594 93.0894 27.9594 95.3894 33.9094C95.6094 34.4794 95.7594 35.0094 95.8494 35.4694C95.9294 35.9394 95.9694 36.4294 95.9694 36.9394Z"
        stroke-linejoin="round"
    />
    <path
        d="M75.8492 45.4693C75.7592 45.0093 75.6092 44.4793 75.3892 43.9093C75.1192 43.2193 74.8392 42.5293 74.5492 41.8493C73.2492 38.8193 71.7292 35.9393 69.9692 33.1993C68.7592 31.2993 67.4292 29.4593 65.9892 27.6993C64.2592 25.5893 62.4792 23.6793 60.6292 21.9893C58.2192 19.7693 55.6992 17.9093 53.0692 16.3893C52.5792 16.0993 52.0792 15.8393 51.5992 15.5793C48.5492 14.0093 45.6392 13.0893 42.8792 12.8193C41.9392 12.7193 41.0192 12.6993 40.1092 12.7593C38.6892 12.8493 37.3692 13.1393 36.1692 13.6293C33.9992 14.4993 32.1992 15.9993 30.7592 18.1393C30.5392 18.4593 30.3892 18.8093 30.2992 19.1793C30.2192 19.5393 30.1792 19.9893 30.1792 20.4993C30.1792 21.0093 30.2192 21.4993 30.2992 21.9693C30.3892 22.4293 30.5392 22.9493 30.7592 23.5293C32.0592 26.8893 33.6192 30.0693 35.4592 33.0793C35.6792 33.4593 35.9192 33.8393 36.1692 34.2193C37.3792 36.1293 38.7192 37.9693 40.1592 39.7393C40.2792 39.8893 40.3992 40.0393 40.5292 40.1793C41.5492 41.4093 42.5892 42.5693 43.6692 43.6593C44.9992 45.0193 46.3792 46.2693 47.7792 47.3993C49.4992 48.7793 51.2592 49.9893 53.0692 51.0393C54.6592 51.9493 56.2092 52.6993 57.7192 53.2693H57.7292C58.5092 53.5693 59.2792 53.8193 60.0392 54.0193H60.0492C62.1292 54.5793 64.1092 54.7993 66.0292 54.6793C67.6792 54.5693 69.1792 54.1993 70.5192 53.5793L70.9292 53.3793C71.2592 53.2093 71.5892 53.0193 71.8992 52.7993C73.2392 51.9393 74.3992 50.7693 75.3892 49.2993C75.6092 48.9793 75.7592 48.6293 75.8492 48.2593C75.9292 47.8893 75.9692 47.4493 75.9692 46.9393C75.9692 46.4293 75.9292 45.9393 75.8492 45.4693ZM61.4592 38.7593C61.4192 41.3493 60.6092 43.0893 59.0292 43.9893C58.2092 44.4593 57.2992 44.6393 56.2992 44.5093C55.3092 44.4093 54.2392 44.0093 53.0692 43.3393C53.0292 43.3093 52.9792 43.2893 52.9392 43.2593C51.7792 42.5693 50.6992 41.6993 49.7092 40.6493C48.7692 39.6393 47.8992 38.4593 47.1192 37.1093C46.7892 36.5293 46.4892 35.9593 46.2292 35.3893C45.1992 33.1893 44.6892 31.0193 44.6892 28.8793C44.6892 28.7393 44.6892 28.5993 44.6992 28.4593C44.7792 25.9893 45.5892 24.3193 47.1192 23.4493C48.7392 22.5193 50.7292 22.7393 53.0692 24.0893C53.5592 24.3693 54.0292 24.6893 54.4892 25.0393C56.2292 26.3493 57.7492 28.1093 59.0292 30.3193C60.4292 32.7493 61.2292 35.1293 61.4092 37.4793C61.4492 37.8393 61.4592 38.1993 61.4592 38.5593V38.7593Z"
        stroke-linejoin="round"
    />
    <path
        d="M61.4594 38.5592V38.7592C61.4194 41.3492 60.6094 43.0892 59.0294 43.9892C58.2094 44.4592 57.2994 44.6392 56.2994 44.5092C55.3094 44.4092 54.2395 44.0092 53.0695 43.3392C53.0295 43.3092 52.9795 43.2892 52.9395 43.2592C51.7795 42.5692 50.6994 41.6992 49.7094 40.6492C48.7694 39.6392 47.8994 38.4592 47.1194 37.1092C46.7894 36.5292 46.4894 35.9592 46.2294 35.3892C45.1994 33.1892 44.6895 31.0192 44.6895 28.8792C44.6895 28.7392 44.6895 28.5992 44.6995 28.4592C44.7795 25.9892 45.5894 24.3192 47.1194 23.4492C48.7394 22.5192 50.7295 22.7392 53.0695 24.0892C53.5595 24.3692 54.0294 24.6892 54.4894 25.0392L49.5894 27.4792C49.5894 27.4792 49.6194 27.4992 49.6394 27.5092C49.5894 27.5192 49.5495 27.5492 49.5095 27.5692C48.5295 28.1292 48.0394 29.2092 48.0394 30.8092C48.0394 32.4092 48.5295 34.0592 49.5095 35.7492C50.3795 37.2492 51.4094 38.3992 52.5994 39.1992C52.7094 39.2692 52.8195 39.3392 52.9395 39.4092C52.9795 39.4392 53.0295 39.4592 53.0695 39.4892C54.3095 40.2092 55.3894 40.3892 56.2994 40.0292C56.4194 39.9892 56.5294 39.9292 56.6394 39.8692L60.6394 37.8692L61.4094 37.4792C61.4494 37.8392 61.4594 38.1992 61.4594 38.5592Z"
        stroke-linejoin="round"
    />
    <path
        d="M61.4094 37.4796L60.6393 37.8696L56.6393 39.8696C57.6193 39.3096 58.1094 38.2396 58.1094 36.6496V36.6296C58.1094 35.0196 57.6193 33.3796 56.6393 31.6896C55.6593 29.9996 54.4694 28.7496 53.0694 27.9396C51.7394 27.1696 50.5893 27.0196 49.6393 27.5096C49.6193 27.4996 49.6094 27.4896 49.5894 27.4796L54.4894 25.0396C56.2294 26.3496 57.7494 28.1095 59.0294 30.3195C60.4294 32.7495 61.2294 35.1296 61.4094 37.4796Z"
        stroke-linejoin="round"
    />
</svg>