<svg
    width="120"
    height="120"
    viewBox="0 0 85 101"
    fill="hsl(174, 53.5%, 10.6%)"
    stroke="hsl(167, 70.0%, 58.0%)"
    xmlns="http://www.w3.org/2000/svg"
    stroke-width="2"
    stroke-linecap="round"
    stroke-linejoin="round"
>
    <path
        d="M50.7001 96.5499C50.7001 97.5299 50.4101 98.1799 49.8401 98.5099C49.2601 98.8299 48.5501 98.7499 47.7001 98.2599L8.66016 75.7199C7.01016 74.7699 5.59017 73.28 4.42017 71.25C3.24017 69.22 2.65015 67.2599 2.65015 65.3599V20.56C2.65015 19.58 2.94013 18.9299 3.51013 18.5999C4.09013 18.2799 4.80015 18.3599 5.65015 18.8499C6.51015 19.3399 7.22016 20.0799 7.79016 21.0799C8.37016 22.0699 8.66016 23.0499 8.66016 24.0299V68.8299L47.7001 91.37C48.5501 91.86 49.2601 92.5999 49.8401 93.5899C50.4101 94.5899 50.7001 95.5699 50.7001 96.5499Z"
        stroke-linejoin="round" />
    <path
        d="M62.6902 44.4599C62.6202 42.6999 62.0401 40.8799 60.9501 39.0099C60.9301 38.9699 60.9101 38.9299 60.8901 38.8999C59.7201 36.9299 58.3301 35.4699 56.7101 34.5399L51.0701 31.2799L34.6602 21.8099L28.6602 18.3399L22.6501 14.8699L20.6702 13.7299C19.1902 12.8799 17.9002 12.6799 16.8002 13.1299L16.4302 13.3099C15.2502 13.9799 14.6602 15.2599 14.6602 17.1599V58.5099C14.6602 60.4099 15.2502 62.3699 16.4302 64.3999C16.5102 64.5399 16.6002 64.6899 16.6802 64.8199C17.8002 66.6399 19.1402 67.9899 20.6702 68.8699L56.7101 89.6799C58.3601 90.6299 59.7701 90.7699 60.9501 90.0999C62.1301 89.4299 62.7101 88.1499 62.7101 86.2499V44.8999C62.7101 44.7499 62.7102 44.6099 62.6902 44.4599ZM40.9001 69.1399C40.2801 69.4999 39.5402 69.4299 38.6902 68.9399C37.8402 68.4499 37.1002 67.6599 36.4702 66.5799C35.8502 65.4999 35.5402 64.4699 35.5402 63.4999C35.5402 63.2599 35.5602 63.0399 35.6002 62.8399C35.7102 62.2099 36.0002 61.7699 36.4702 61.4999C37.1002 61.1399 37.8402 61.2099 38.6902 61.6999C39.5402 62.1899 40.2801 62.9799 40.9001 64.0599C41.3701 64.8599 41.6602 65.6399 41.7802 66.3999C41.8202 66.6499 41.8401 66.8999 41.8401 67.1399C41.8401 68.1199 41.5301 68.7799 40.9001 69.1399ZM46.5002 51.5199C46.0002 52.2899 45.0002 53.1099 43.4902 53.9599C42.6402 54.4499 42.0602 54.8799 41.7302 55.2699C41.4002 55.6599 41.1901 56.1699 41.0901 56.7999C40.9901 57.4899 40.7002 57.9199 40.2302 58.1099C40.0502 58.1799 39.8702 58.2099 39.6902 58.2099H39.6802C39.3602 58.2099 39.0402 58.1099 38.6902 57.9099C38.0402 57.5299 37.5001 56.9599 37.0801 56.1999C36.7501 55.6199 36.5601 55.0699 36.5201 54.5499C36.5001 54.3799 36.5001 54.2299 36.5201 54.0699C36.6201 52.6299 36.8701 51.6399 37.2701 51.0999C37.6701 50.5499 38.6002 49.9799 40.0502 49.3799C41.0502 48.8699 41.7501 48.3699 42.1501 47.8799C42.5501 47.3999 42.7502 46.7499 42.7502 45.9499C42.7502 44.6299 42.3801 43.3599 41.6301 42.1499C40.8801 40.9399 39.9001 39.9899 38.7001 39.2999C37.9501 38.8699 37.2702 38.6599 36.6702 38.6899C36.3902 38.6999 36.1301 38.7699 35.8801 38.8799L35.7202 38.9599C35.5002 39.0799 35.2902 39.2499 35.1002 39.4599C34.9702 39.5999 34.8302 39.6999 34.6702 39.7799C34.4102 39.9099 34.1102 39.9499 33.7802 39.9099C33.2602 39.8299 32.7202 39.4899 32.1702 38.8899C31.5702 38.2499 31.1401 37.5499 30.8901 36.7699C30.6401 35.9999 30.6702 35.4099 30.9702 35.0099C31.7702 33.8599 32.8402 33.2499 34.1902 33.1699C34.3502 33.1699 34.5102 33.1699 34.6702 33.1699C35.9002 33.1999 37.2401 33.6399 38.7001 34.4799C39.5901 34.9899 40.4301 35.5799 41.2001 36.2199C42.6401 37.4199 43.8701 38.8499 44.8901 40.5099C46.4701 43.0499 47.2601 45.6199 47.2601 48.1999C47.2601 49.6399 47.0101 50.7499 46.5101 51.5199H46.5002Z"
        stroke-linejoin="round" />
    <path
        d="M41.8401 67.14C41.8401 68.12 41.5301 68.78 40.9001 69.14C40.2801 69.5 39.5402 69.4299 38.6902 68.9399C37.8402 68.4499 37.1002 67.66 36.4702 66.58C35.8502 65.5 35.5402 64.47 35.5402 63.5C35.5402 63.26 35.5602 63.04 35.6002 62.84C35.7102 62.21 36.0002 61.77 36.4702 61.5C37.1002 61.14 37.8402 61.2099 38.6902 61.6999C39.5402 62.1899 40.2801 62.98 40.9001 64.06C41.3701 64.86 41.6602 65.64 41.7802 66.4C41.8202 66.65 41.8401 66.9 41.8401 67.14Z"
        stroke-linejoin="round" />
    <path
        d="M47.2502 48.2C47.2502 49.64 47.0002 50.75 46.5002 51.52C46.0002 52.29 45.0002 53.11 43.4902 53.96C42.6402 54.45 42.0602 54.88 41.7302 55.27C41.4002 55.66 41.1901 56.17 41.0901 56.8C40.9901 57.49 40.7002 57.92 40.2302 58.11C40.0502 58.18 39.8702 58.21 39.6902 58.21H39.6802C39.3602 58.21 39.0402 58.11 38.6902 57.91C38.0402 57.53 37.5001 56.96 37.0801 56.2C36.7501 55.62 36.5601 55.07 36.5201 54.55C36.5001 54.38 36.5001 54.2299 36.5201 54.0699C36.6201 52.6299 36.8701 51.64 37.2701 51.1C37.6701 50.55 38.6002 49.9799 40.0502 49.3799C41.0502 48.8699 41.7501 48.3699 42.1501 47.8799C42.5501 47.3999 42.7502 46.75 42.7502 45.95C42.7502 44.63 42.3801 43.36 41.6301 42.15C40.8801 40.94 39.9001 39.99 38.7001 39.3C37.9501 38.87 37.2702 38.6599 36.6702 38.6899C36.3902 38.6999 36.1301 38.7699 35.8801 38.8799L41.2001 36.22C42.6401 37.42 43.8701 38.8499 44.8901 40.5099C46.4701 43.0499 47.2601 45.62 47.2601 48.2H47.2502Z"
        stroke-linejoin="round" />
    <path
        d="M41.1902 36.2199L35.8702 38.8799L35.7102 38.9599C35.4902 39.0799 35.2802 39.2499 35.0902 39.4599C34.9602 39.5999 34.8202 39.6999 34.6602 39.7799C34.4002 39.9099 34.1002 39.9499 33.7702 39.9099C33.2502 39.8299 32.7102 39.4899 32.1602 38.8899C31.5602 38.2499 31.1302 37.5499 30.8802 36.7699C30.6302 35.9999 30.6602 35.4099 30.9602 35.0099C31.7602 33.8599 32.8302 33.2499 34.1802 33.1699C34.3402 33.1699 34.5002 33.1699 34.6602 33.1699C35.8902 33.1999 37.2302 33.6399 38.6902 34.4799C39.5802 34.9899 40.4202 35.5799 41.1902 36.2199Z"
        stroke-linejoin="round" />
    <path
        d="M25.5002 8.76987L22.6602 10.1899L16.8002 13.1299L16.4302 13.3099C15.2502 13.9799 14.6602 15.2599 14.6602 17.1599V58.5099C14.6602 60.4099 15.2502 62.3699 16.4302 64.3999C16.5102 64.5399 16.6002 64.6899 16.6802 64.8199L8.66016 68.8299V24.0299C8.66016 23.0499 8.37016 22.0699 7.79016 21.0799C7.22016 20.0799 6.51015 19.3399 5.65015 18.8499C4.80015 18.3599 4.09013 18.2799 3.51013 18.5999L23.5101 8.59989C24.0501 8.29989 24.7102 8.34987 25.5002 8.76987Z"
        stroke-linejoin="round" />
    <path
        d="M70.7001 86.5499C70.7001 87.5299 70.4101 88.1798 69.8401 88.5098L49.8401 98.5098C50.4101 98.1798 50.7001 97.5299 50.7001 96.5499C50.7001 95.5699 50.4101 94.5898 49.8401 93.5898C49.2601 92.5998 48.5501 91.8599 47.7001 91.3699L8.66016 68.8298L16.6802 64.8198C17.8002 66.6398 19.1402 67.9899 20.6702 68.8699L56.7101 89.6799C58.3601 90.6299 59.7701 90.7699 60.9501 90.0999L66.2802 87.4398L70.5402 85.2999C70.6502 85.7199 70.7001 86.1299 70.7001 86.5499Z"
        stroke-linejoin="round" />
    <path
        d="M82.7101 34.8999V76.2499C82.7101 78.1499 82.1301 79.4299 80.9501 80.0999L80.5801 80.2799L70.5402 85.2999L66.2802 87.4399L60.9501 90.0999C62.1301 89.4299 62.7101 88.1499 62.7101 86.2499V44.8999C62.7101 44.7499 62.7102 44.6099 62.6902 44.4599C62.6202 42.6999 62.0401 40.8799 60.9501 39.0099C60.9301 38.9699 60.9101 38.9299 60.8901 38.8999C59.7201 36.9299 58.3301 35.4699 56.7101 34.5399L51.0701 31.2799L34.6602 21.8099L28.6602 18.3399L22.6501 14.8699L20.6702 13.7299C19.1902 12.8799 17.9002 12.6799 16.8002 13.1299L22.6602 10.1899L25.5002 8.7699L36.4302 3.30994C37.6002 2.63994 39.0202 2.77992 40.6702 3.72992L76.7101 24.5399C78.3601 25.4899 79.7701 26.9899 80.9501 29.0099C82.1301 31.0399 82.7101 32.9999 82.7101 34.8999Z"
        stroke-linejoin="round" />
</svg>