<svg
    width="120"
    height="120"
    viewBox="-10 -4 104 119"
    fill="hsl(174, 53.5%, 10.6%)"
    stroke="hsl(167, 70.0%, 58.0%)"
    xmlns="http://www.w3.org/2000/svg"
    stroke-width="2"
    stroke-linecap="round"
    stroke-linejoin="round"
>
    <path
        d="M57.25 49.1935C56.34 46.6435 55.2199 44.0735 53.8899 41.4935C53.2899 40.3235 52.65 39.1535 51.97 37.9735C46.35 28.2735 39.51 21.1035 31.46 16.4535C28.82 14.9335 26.3099 13.8235 23.9399 13.1435C19.4799 11.8735 15.4899 12.0835 11.9399 13.7835L11.47 14.0135C11.29 14.1035 11.12 14.1935 10.95 14.2935C5.32995 17.4935 2.52002 23.7235 2.52002 32.9535C2.52002 38.6835 3.70006 44.6735 6.06006 50.9235C8.43006 57.1735 11.57 62.9135 15.5 68.1635V84.4235C15.5 86.9435 16.2801 89.5535 17.8401 92.2435C19.4001 94.9435 21.28 96.9235 23.48 98.1935C24.28 100.254 25.38 102.173 26.77 103.933C28.17 105.693 29.73 107.074 31.46 108.074C33.19 109.074 34.7599 109.494 36.1499 109.344C37.5499 109.204 38.65 108.554 39.45 107.414C39.65 107.524 39.84 107.633 40.04 107.733C41.98 108.713 43.6601 108.794 45.0901 107.974C46.3801 107.234 47.1401 105.944 47.3501 104.094C47.4101 103.704 47.4299 103.293 47.4299 102.863V86.6035C48.8399 86.3435 50.1601 85.9035 51.3701 85.2935L51.5901 85.1835C52.0201 84.9635 52.4301 84.7135 52.8301 84.4335C53.8601 83.7435 54.7899 82.9135 55.6399 81.9335C56.0699 81.4435 56.4801 80.9235 56.8601 80.3635C57.2301 79.8235 57.5799 79.2435 57.8799 78.6435C58.4499 77.5635 58.92 76.3835 59.29 75.1035C60.04 72.5735 60.4099 69.6635 60.4099 66.3735C60.4099 60.7335 59.36 55.0035 57.25 49.1935ZM39.45 98.2535L23.48 89.0335V84.9135L27.3 87.1235L39.45 94.1335V98.2535ZM39.45 89.5435L31.5601 84.9935L23.48 80.3335V75.9735L27.53 78.3135L35.6001 82.9735L39.45 85.1935V89.5435ZM41.1399 56.9735L35.5 60.1935L34.46 60.7835V73.1535L28.47 69.6935V57.3235L21.78 45.7935C21.18 44.7635 20.8799 43.7835 20.8799 42.8735C20.8799 41.9635 21.18 41.3235 21.78 40.9835C22.38 40.6435 23.0799 40.7035 23.8799 41.1635C24.6799 41.6235 25.38 42.3735 25.97 43.4035L31.46 52.8735L31.8 52.6835L36.95 49.7435C37.3 49.5435 37.6801 49.4835 38.0901 49.5535H38.1001C38.4001 49.6035 38.71 49.7335 39.05 49.9235C39.6 50.2435 40.1 50.6935 40.55 51.2835C40.76 51.5435 40.9499 51.8435 41.1399 52.1635C41.7399 53.1935 42.04 54.1735 42.04 55.0835C42.04 55.9935 41.7399 56.6335 41.1399 56.9735Z"
        stroke-linejoin="round"
    />
    <path
        d="M39.45 94.1335V98.2535L23.48 89.0335L27.3 87.1235L39.45 94.1335Z"
        stroke-linejoin="round"
    />
    <path
        d="M27.3 87.1235L23.48 89.0335V84.9135L27.3 87.1235Z"
        stroke-linejoin="round"
    />
    <path
        d="M27.53 78.3135L23.48 80.3335V75.9735L27.53 78.3135Z"
        stroke-linejoin="round"
    />
    <path
        d="M39.45 85.1935V89.5435L31.5601 84.9935L23.48 80.3335L27.53 78.3135L35.6001 82.9735L39.45 85.1935Z"
        stroke-linejoin="round"
    />
    <path
        d="M38.0901 49.5535L31.8101 52.6935C31.8101 52.6935 31.8 52.6935 31.8 52.6835L36.95 49.7435C37.3 49.5435 37.6801 49.4835 38.0901 49.5535Z"
        stroke-linejoin="round"
    />
    <path
        d="M34.46 66.7035V73.1535L28.47 69.6935L34.46 66.7035Z"
        stroke-linejoin="round"
    />
    <path
        d="M40.55 51.2835L33.24 54.9435L28.47 57.3235L21.78 45.7935C21.18 44.7635 20.8799 43.7835 20.8799 42.8735C20.8799 41.9635 21.18 41.3235 21.78 40.9835C22.38 40.6435 23.0799 40.7035 23.8799 41.1635C24.6799 41.6235 25.38 42.3735 25.97 43.4035L31.46 52.8735L31.8101 52.6935L38.0901 49.5535H38.1001C38.4001 49.6035 38.71 49.7335 39.05 49.9235C39.6 50.2435 40.1 50.6935 40.55 51.2835Z"
        stroke-linejoin="round"
    />
    <path
        d="M42.04 55.0835C42.04 56.0035 41.7399 56.6335 41.1399 56.9735L35.5 60.1935L34.46 60.7835V66.7035L28.47 69.6935V57.3235L33.24 54.9435L40.55 51.2835C40.76 51.5435 40.9499 51.8435 41.1399 52.1635C41.7399 53.1935 42.04 54.1735 42.04 55.0835Z"
        stroke-linejoin="round"
    />
    <path
        d="M80.4099 56.3735C80.4099 62.2535 79.2201 66.9134 76.8601 70.3634C75.4001 72.5034 73.6401 74.1035 71.5801 75.1935L71.52 75.2235L67.4299 77.2635L56.78 82.5935L52.95 84.5035L51.5901 85.1835C52.0201 84.9635 52.4301 84.7135 52.8301 84.4335C53.8601 83.7435 54.7899 82.9135 55.6399 81.9335C56.0699 81.4435 56.4801 80.9234 56.8601 80.3634C57.2301 79.8234 57.5799 79.2435 57.8799 78.6435C58.4499 77.5635 58.92 76.3835 59.29 75.1035C60.04 72.5735 60.4099 69.6635 60.4099 66.3735C60.4099 60.7335 59.36 55.0035 57.25 49.1935C56.34 46.6435 55.2199 44.0735 53.8899 41.4935C53.2899 40.3235 52.65 39.1535 51.97 37.9735C46.35 28.2735 39.51 21.1035 31.46 16.4535C28.82 14.9335 26.3099 13.8235 23.9399 13.1435C19.4799 11.8735 15.4899 12.0835 11.9399 13.7835L30.95 4.29345C36.58 1.08345 43.41 1.80348 51.46 6.45348C59.51 11.1035 66.35 18.2735 71.97 27.9735C77.59 37.6735 80.4099 47.1335 80.4099 56.3735Z"
        stroke-linejoin="round"
    />
    <path
        d="M67.4299 77.2635V92.8635C67.4299 95.3835 66.6501 97.0835 65.0901 97.9735L45.0901 107.974C46.3801 107.234 47.1401 105.944 47.3501 104.094C47.4101 103.704 47.4299 103.293 47.4299 102.863V86.6035C48.8399 86.3435 50.1601 85.9035 51.3701 85.2935L51.5901 85.1835L52.95 84.5035L56.78 82.5935L67.4299 77.2635Z"
        stroke-linejoin="round"
    />
    <path d="M40.04 107.733L38.23 108.633" stroke-linejoin="round" />
</svg>