<svg
    width="120"
    height="120"
    viewBox="0 0 101 112"
    fill="hsl(174, 53.5%, 10.6%)"
    stroke="hsl(167, 70.0%, 58.0%)"
    xmlns="http://www.w3.org/2000/svg"
    stroke-width="1.5px"
    stroke-linecap="round"
    stroke-linejoin="round"
>
    <path
        d="M56.3899 56.7334L55.71 57.0634L57.0298 57.8234L56.3899 56.7334Z"
        stroke-linejoin="round"
    />
    <path
        d="M77.7998 74.2633C77.5598 72.6833 77.2599 71.0833 76.8799 69.4733C76.4899 67.7333 76.02 65.9833 75.47 64.2133C73.97 59.3633 72.0798 54.6733 69.7798 50.1433C69.7598 50.1133 69.75 50.0833 69.73 50.0533C68.97 48.5533 68.1698 47.0733 67.3198 45.6133C66.8498 44.7933 66.3599 43.9934 65.8699 43.1934C62.7699 38.2034 59.21 33.5633 55.22 29.2733C50.58 24.2933 45.6198 20.2833 40.3398 17.2333C35.2698 14.3033 30.48 12.6033 25.99 12.1433C25.82 12.1233 25.64 12.1033 25.47 12.0933C21.72 11.7833 18.3699 12.2433 15.4099 13.4633C14.7099 13.7533 14.0299 14.0833 13.3699 14.4633C9.92987 16.4133 7.21996 19.4833 5.20996 23.6433C3.20996 27.8133 2.20996 32.9233 2.20996 38.9733C2.20996 45.0233 3.20996 51.2933 5.20996 57.7733C7.21996 64.2533 9.92987 70.4534 13.3699 76.3734C16.7999 82.2934 20.83 87.7433 25.47 92.7133C30.11 97.6933 35.0698 101.703 40.3398 104.753C45.6198 107.793 50.58 109.503 55.22 109.893C59.85 110.273 63.8898 109.483 67.3198 107.523C70.3198 105.813 72.78 103.253 74.7 99.8433C74.96 99.3633 75.22 98.8633 75.47 98.3433C77.47 94.1733 78.48 89.0633 78.48 83.0133C78.48 80.1433 78.2598 77.2233 77.7998 74.2633ZM21.47 41.1234C21.47 40.2534 21.7498 39.6533 22.3298 39.3233L23.0798 38.8933L25.7598 37.3633C26.5198 36.9333 27.43 37.0134 28.48 37.6234C29.52 38.2234 30.4299 39.1934 31.1899 40.5034L32.6799 43.1133L34.5298 46.3733C35.0398 47.3233 35.3098 48.2433 35.3398 49.1333C35.3698 50.0233 35.0998 50.6333 34.5298 50.9633C33.9598 51.2933 33.2898 51.2333 32.5298 50.7933C31.7598 50.3533 31.0998 49.6333 30.5298 48.6533L28.5198 45.1934L26.3298 46.3433C25.8798 46.5433 25.3598 46.5033 24.7598 46.2233C24.5998 46.1633 24.4398 46.0733 24.2798 45.9733C23.4898 45.4833 22.8398 44.7933 22.3298 43.9133C21.7498 42.9333 21.47 42.0034 21.47 41.1234ZM58.0798 83.9233C56.2198 86.2633 53.7798 87.5733 50.7698 87.8633C50.6898 87.8733 50.6198 87.8733 50.5398 87.8833C47.4298 88.1333 44.0298 87.1834 40.3398 85.0634C36.7198 82.9634 33.3399 79.9933 30.1899 76.1333C27.0499 72.2733 24.5199 68.0434 22.6099 63.4434C22.2299 62.3534 22.26 61.4933 22.71 60.8733C23.15 60.2533 23.82 60.2033 24.71 60.7133L32.8198 65.3933L55.98 78.7733C56.87 79.2833 57.54 80.1033 57.98 81.2433C58.42 82.3733 58.4598 83.2633 58.0798 83.9233ZM58.3599 64.7233C57.7899 65.0533 57.1199 64.9933 56.3599 64.5533C55.5999 64.1133 54.9299 63.4333 54.3599 62.5233L52.1599 58.8433L50.1599 59.9933C49.5899 60.3133 48.9199 60.2534 48.1599 59.8134C47.3999 59.3734 46.7299 58.6633 46.1599 57.6733C45.5899 56.6933 45.2998 55.7633 45.2998 54.8833C45.2998 54.0033 45.5598 53.3933 46.0598 53.0233L47.3999 52.2633L49.5 51.0733C50.26 50.6333 51.16 50.7233 52.21 51.3233C53.26 51.9333 54.1699 52.8933 54.9299 54.2133L56.3899 56.7333L57.0298 57.8233L58.3599 60.1233C58.9299 61.1133 59.22 62.0433 59.22 62.9233C59.22 63.8033 58.9299 64.3933 58.3599 64.7233Z"
        stroke-linejoin="round"
    />
    <path
        d="M58.0798 83.9234C56.2198 86.2634 53.7797 87.5734 50.7697 87.8634C50.6897 87.8734 50.6197 87.8733 50.5397 87.8833C47.4297 88.1333 44.0298 87.1834 40.3398 85.0634C36.7198 82.9634 33.3399 79.9933 30.1899 76.1333C27.0499 72.2733 24.5198 68.0434 22.6098 63.4434C22.2298 62.3534 22.2599 61.4934 22.7099 60.8734C23.1499 60.2534 23.8199 60.2034 24.7099 60.7134L32.8198 65.3934L55.9799 78.7734C56.8699 79.2834 57.5399 80.1034 57.9799 81.2434C58.4199 82.3734 58.4598 83.2634 58.0798 83.9234Z"
        stroke-linejoin="round"
    />
    <path
        d="M59.22 62.9233C59.22 63.7933 58.9299 64.3933 58.3599 64.7233C57.7899 65.0533 57.1199 64.9933 56.3599 64.5533C55.5999 64.1133 54.9299 63.4333 54.3599 62.5233L52.1599 58.8433L55.71 57.0634L57.0298 57.8233L58.3599 60.1234C58.9299 61.1134 59.22 62.0433 59.22 62.9233Z"
        stroke-linejoin="round"
    />
    <path
        d="M56.3899 56.7333L55.71 57.0633L52.1599 58.8433L50.1599 59.9933C49.5899 60.3133 48.9199 60.2533 48.1599 59.8133C47.3999 59.3733 46.7299 58.6633 46.1599 57.6733C45.5899 56.6933 45.2998 55.7633 45.2998 54.8833C45.2998 54.0033 45.5598 53.3933 46.0598 53.0233L47.3999 52.2633L49.5 51.0733C50.26 50.6333 51.16 50.7233 52.21 51.3233C53.26 51.9333 54.1699 52.8933 54.9299 54.2133L56.3899 56.7333Z"
        stroke-linejoin="round"
    />
    <path
        d="M35.3398 49.1332C35.3698 50.0232 35.0998 50.6333 34.5298 50.9633C33.9598 51.2933 33.2898 51.2333 32.5298 50.7933C31.7598 50.3533 31.0998 49.6333 30.5298 48.6533L28.5198 45.1933L32.6799 43.1133L34.5298 46.3733C35.0398 47.3233 35.3098 48.2432 35.3398 49.1332Z"
        stroke-linejoin="round"
    />
    <path
        d="M32.6799 43.1133L28.5198 45.1933L26.3298 46.3433C25.8798 46.5433 25.3598 46.5033 24.7598 46.2233C24.5998 46.1633 24.4398 46.0733 24.2798 45.9733C23.4898 45.4833 22.8398 44.7933 22.3298 43.9133C21.7498 42.9333 21.47 42.0033 21.47 41.1233C21.47 40.2433 21.7498 39.6533 22.3298 39.3233L23.0798 38.8933L25.7598 37.3633C26.5198 36.9333 27.43 37.0133 28.48 37.6233C29.52 38.2233 30.4299 39.1933 31.1899 40.5033L32.6799 43.1133Z"
        stroke-linejoin="round"
    />
    <path
        d="M98.48 73.0133C98.48 79.0633 97.47 84.1733 95.47 88.3433C93.47 92.5033 90.7498 95.5733 87.3198 97.5233L67.3198 107.523C70.3198 105.813 72.78 103.253 74.7 99.8433C74.96 99.3633 75.22 98.8633 75.47 98.3433C77.47 94.1733 78.48 89.0633 78.48 83.0133C78.48 80.1433 78.2598 77.2233 77.7998 74.2633C77.5598 72.6833 77.2599 71.0833 76.8799 69.4733C76.4899 67.7333 76.02 65.9833 75.47 64.2133C73.97 59.3633 72.0798 54.6733 69.7798 50.1433C69.7598 50.1133 69.75 50.0833 69.73 50.0533C68.97 48.5533 68.1698 47.0733 67.3198 45.6133C66.8498 44.7933 66.3599 43.9933 65.8699 43.1933C62.7699 38.2033 59.21 33.5633 55.22 29.2733C50.58 24.2933 45.6198 20.2833 40.3398 17.2333C35.2698 14.3033 30.48 12.6033 25.99 12.1433C25.82 12.1233 25.64 12.1033 25.47 12.0933C21.72 11.7833 18.3699 12.2433 15.4099 13.4633L33.3699 4.46329C36.7999 2.50329 40.83 1.7133 45.47 2.0933C50.11 2.4733 55.0698 4.19331 60.3398 7.23331C65.6198 10.2833 70.58 14.2933 75.22 19.2733C79.85 24.2433 83.8898 29.6933 87.3198 35.6133C90.7498 41.5333 93.47 47.7333 95.47 54.2133C97.47 60.6933 98.48 66.9533 98.48 73.0133Z"
        stroke-linejoin="round"
    />
</svg>